<?xml version="1.0" encoding="UTF-8"?>
<!DOCTYPE svg PUBLIC "-//W3C//DTD SVG 1.1//EN" "http://www.w3.org/Graphics/SVG/1.1/DTD/svg11.dtd">
<svg xmlns="http://www.w3.org/2000/svg" version="1.1" width="32px" height="32px" style="shape-rendering:geometricPrecision; text-rendering:geometricPrecision; image-rendering:optimizeQuality; fill-rule:evenodd; clip-rule:evenodd" xmlns:xlink="http://www.w3.org/1999/xlink">
<g><path style="opacity:1" fill="#171717" d="M -0.5,-0.5 C 10.1667,-0.5 20.8333,-0.5 31.5,-0.5C 31.5,0.833333 31.5,2.16667 31.5,3.5C 28.6933,4.97991 27.0266,7.31325 26.5,10.5C 27.5299,14.4649 27.6965,18.4649 27,22.5C 25.8176,24.3569 24.151,25.3569 22,25.5C 19.8792,23.2493 17.3792,21.5827 14.5,20.5C 16.4241,20.2893 16.7574,19.6226 15.5,18.5C 15.1667,17.8333 14.8333,17.1667 14.5,16.5C 14.1667,16.5 13.8333,16.5 13.5,16.5C 13.6716,15.5084 13.3382,14.8417 12.5,14.5C 12.5,13.1667 11.8333,12.5 10.5,12.5C 7.28187,12.3491 6.94854,11.5158 9.5,10C 6.28963,8.22817 2.9563,6.72817 -0.5,5.5C -0.5,3.5 -0.5,1.5 -0.5,-0.5 Z"/></g>
<g><path style="opacity:1" fill="#090909" d="M 31.5,3.5 C 31.5,12.8333 31.5,22.1667 31.5,31.5C 20.8333,31.5 10.1667,31.5 -0.5,31.5C -0.5,22.8333 -0.5,14.1667 -0.5,5.5C 2.9563,6.72817 6.28963,8.22817 9.5,10C 6.94854,11.5158 7.28187,12.3491 10.5,12.5C 11.8333,12.5 12.5,13.1667 12.5,14.5C 13.3382,14.8417 13.6716,15.5084 13.5,16.5C 13.8333,16.5 14.1667,16.5 14.5,16.5C 14.8333,17.1667 15.1667,17.8333 15.5,18.5C 14.6618,18.8417 14.3284,19.5084 14.5,20.5C 17.3792,21.5827 19.8792,23.2493 22,25.5C 24.151,25.3569 25.8176,24.3569 27,22.5C 27.6965,18.4649 27.5299,14.4649 26.5,10.5C 27.0266,7.31325 28.6933,4.97991 31.5,3.5 Z"/></g>
<g><path style="opacity:1" fill="#d0d0d0" d="M 14.5,10.5 C 16.337,10.6395 16.6704,11.3061 15.5,12.5C 14.7025,12.0431 14.3691,11.3764 14.5,10.5 Z"/></g>
<g><path style="opacity:1" fill="#cacaca" d="M 10.5,9.5 C 11.0768,8.22671 11.7435,8.22671 12.5,9.5C 12.0302,10.463 11.3635,10.463 10.5,9.5 Z"/></g>
<g><path style="opacity:1" fill="#c5c5c5" d="M 10.5,12.5 C 11.8333,12.5 12.5,13.1667 12.5,14.5C 11.1667,14.5 10.5,13.8333 10.5,12.5 Z"/></g>
<g><path style="opacity:1" fill="#cbcbcb" d="M 18.5,12.5 C 20.337,12.6395 20.6704,13.3061 19.5,14.5C 18.7025,14.0431 18.3691,13.3764 18.5,12.5 Z"/></g>
<g><path style="opacity:1" fill="#d9d9d9" d="M 14.5,16.5 C 14.6395,14.663 15.3061,14.3296 16.5,15.5C 16.0431,16.2975 15.3764,16.6309 14.5,16.5 Z"/></g>
<g><path style="opacity:1" fill="#7e7e7e" d="M 7.5,14.5 C 9.33702,14.6395 9.67036,15.3061 8.5,16.5C 7.70245,16.0431 7.36912,15.3764 7.5,14.5 Z"/></g>
<g><path style="opacity:1" fill="#909090" d="M 13.5,16.5 C 13.0517,18.4646 12.0517,18.7979 10.5,17.5C 11.325,16.6143 12.325,16.281 13.5,16.5 Z"/></g>
<g><path style="opacity:1" fill="#b3b3b3" d="M 18.5,16.5 C 20.337,16.6395 20.6704,17.3061 19.5,18.5C 18.7025,18.0431 18.3691,17.3764 18.5,16.5 Z"/></g>
<g><path style="opacity:1" fill="#b3b3b3" d="M 15.5,18.5 C 16.7574,19.6226 16.4241,20.2893 14.5,20.5C 14.3284,19.5084 14.6618,18.8417 15.5,18.5 Z"/></g>
<g><path style="opacity:1" fill="#848484" d="M 11.5,20.5 C 12.5735,21.2506 12.7401,22.2506 12,23.5C 10.2716,22.6477 10.105,21.6477 11.5,20.5 Z"/></g>
</svg>
